HIERARCHY
ROOT Hips
{
    OFFSET 0.000000 0.000000 0.000000
    CHANNELS 6 Xposition Yposition Zposition Zrotation Xrotation Yrotation
    JOINT Chest
    {
        OFFSET -0.000000 0.078598 0.000000
        CHANNELS 3 Zrotation Xrotation Yrotation
        JOINT Chest2
        {
            OFFSET -0.000000 0.230468 0.000000
            CHANNELS 3 Zrotation Xrotation Yrotation
            JOINT Neck
            {
                OFFSET -0.000000 0.249638 0.000000
                CHANNELS 3 Zrotation Xrotation Yrotation
                JOINT Head
                {
                    OFFSET -0.000000 0.103998 0.019170
                    CHANNELS 3 Zrotation Xrotation Yrotation
                    End Site
                    {
                        OFFSET -0.000000 0.191701 0.000000
                    }
                }
            }
            JOINT LeftCollar
            {
                OFFSET 0.038274 0.205938 -0.001496
                CHANNELS 3 Zrotation Xrotation Yrotation
                JOINT LeftShoulder
                {
                    OFFSET 0.132388 0.000000 0.000000
                    CHANNELS 3 Zrotation Xrotation Yrotation
                    JOINT LeftElbow
                    {
                        OFFSET 0.250301 0.000000 0.000000
                        CHANNELS 3 Zrotation Xrotation Yrotation
                        JOINT LeftWrist
                        {
                            OFFSET 0.285291 0.000000 0.000000
                            CHANNELS 3 Zrotation Xrotation Yrotation
                            End Site
                            {
                                OFFSET 0.000000 -0.143776 0.000000
                            }
                        }
                    }
                }
            }
            JOINT RightCollar
            {
                OFFSET -0.038406 0.205938 -0.001496
                CHANNELS 3 Zrotation Xrotation Yrotation
                JOINT RightShoulder
                {
                    OFFSET -0.132388 0.000000 0.000000
                    CHANNELS 3 Zrotation Xrotation Yrotation
                    JOINT RightElbow
                    {
                        OFFSET -0.250301 0.000000 0.000000
                        CHANNELS 3 Zrotation Xrotation Yrotation
                        JOINT RightWrist
                        {
                            OFFSET -0.285291 0.000000 0.000000
                            CHANNELS 3 Zrotation Xrotation Yrotation
                            End Site
                            {
                                OFFSET -0.000000 -0.143776 0.000000
                            }
                        }
                    }
                }
            }
        }
    }
    JOINT LeftHip
    {
        OFFSET 0.095851 0.000000 0.000000
        CHANNELS 3 Zrotation Xrotation Yrotation
        JOINT LeftKnee
        {
            OFFSET -0.000000 -0.406444 0.000000
            CHANNELS 3 Zrotation Xrotation Yrotation
            JOINT LeftAnkle
            {
                OFFSET -0.000000 -0.408443 0.000000
                CHANNELS 3 Zrotation Xrotation Yrotation
                JOINT LeftToe
                {
                    OFFSET -0.000000 -0.062303 0.143776
                    CHANNELS 3 Zrotation Xrotation Yrotation
                    End Site
                    {
                        OFFSET -0.000000 0.000000 0.038340
                    }
                }
            }
        }
    }
    JOINT RightHip
    {
        OFFSET -0.095851 0.000000 0.000000
        CHANNELS 3 Zrotation Xrotation Yrotation
        JOINT RightKnee
        {
            OFFSET -0.000000 -0.406444 0.000000
            CHANNELS 3 Zrotation Xrotation Yrotation
            JOINT RightAnkle
            {
                OFFSET -0.000000 -0.408443 0.000000
                CHANNELS 3 Zrotation Xrotation Yrotation
                JOINT RightToe
                {
                    OFFSET -0.000000 -0.062303 0.143776
                    CHANNELS 3 Zrotation Xrotation Yrotation
                    End Site
                    {
                        OFFSET -0.000000 0.000000 0.038340
                    }
                }
            }
        }
    }
}
MOTION
Frames:    9
Frame Time:    0.016667
-0.036047    0.889454    1.063719    -1.043811    3.528375    -176.895309    -0.144165    0.145703    -0.800316    -2.421703    1.327204    -0.238780    -0.102574    6.305336    0.252611    -4.586534    0.320893    0.846661    11.743266    -0.125147    -1.852171    -17.496328    -3.338944    -6.612470    -1.676923    -12.762308    1.308143    90.195610    -0.010153    12.743652    -10.924476    -1.328641    1.279935    23.893677    -7.427834    -2.279006    -4.075865    -5.249830    -2.646058    -89.023392    4.056058    -5.378178    3.410918    9.311379    0.537043    -0.915186    -1.564550    -1.992691    -3.367261    -7.947896    12.531905    0.000000    0.000000    0.000000    -6.646127    10.960467    4.734204    1.008970    -5.344594    0.609837    2.742858    -6.936077    -14.739404    0.000000    0.000000    0.000000    
-0.036016    0.889471    1.063734    -1.029949    3.525741    -176.893509    -0.161570    0.131669    -0.835557    -2.390619    1.329780    -0.250963    -0.215558    6.293045    0.304240    -4.421829    0.378356    0.859069    11.747205    -0.131104    -1.828645    -17.544004    -3.197963    -6.621692    -1.555011    -12.752741    1.285621    90.097389    -0.244947    12.735940    -10.942908    -1.333880    1.320686    24.279072    -6.628238    -2.251252    -4.664161    -5.629794    -2.698474    -89.623489    3.947029    -5.752133    3.422407    9.320013    0.540927    -0.906946    -1.590367    -1.982786    -3.375588    -7.931085    12.523566    0.000000    0.000000    0.000000    -6.631813    10.953348    4.737550    1.011878    -5.337927    0.605160    2.723293    -6.918863    -14.731065    0.000000    0.000000    0.000000    
-0.035955    0.889611    1.063872    -1.008910    3.525978    -176.922104    -0.149562    0.175273    -0.831420    -2.441380    1.248329    -0.250673    -0.149296    6.300034    0.347799    -4.390007    0.493627    0.916524    11.815555    -0.115906    -1.804276    -17.552105    -3.331147    -6.661041    -1.658701    -12.817750    1.185019    90.562805    -0.157507    12.801799    -10.855478    -1.338379    1.348266    24.206926    -6.700135    -2.335577    -4.595603    -5.618692    -2.611998    -89.643356    3.892798    -5.735121    3.438885    9.318769    0.573842    -0.899222    -1.599397    -1.992354    -3.415018    -7.878863    12.531636    0.000000    0.000000    0.000000    -6.617240    10.892543    4.792789    1.029029    -5.255231    0.628140    2.737206    -6.897100    -14.783998    0.000000    0.000000    0.000000    
-0.035993    0.889571    1.063712    -1.039619    3.567822    -176.893677    -0.173697    0.195670    -0.870040    -2.497449    1.227803    -0.263370    -0.099779    6.390967    0.370947    -4.381248    0.497140    0.948595    11.877475    -0.089996    -1.796401    -17.553555    -3.279271    -6.727700    -1.694153    -12.928808    1.259562    90.657616    -0.307912    12.912435    -10.749786    -1.336345    1.361035    24.124821    -6.713622    -2.348606    -4.564988    -5.624266    -2.601396    -89.846519    3.854106    -5.732625    3.407280    9.384993    0.540777    -0.889477    -1.634557    -1.988005    -3.400972    -7.866886    12.530557    0.000000    0.000000    0.000000    -6.661112    10.950691    4.790812    1.061684    -5.246923    0.627494    2.690119    -6.951288    -14.797682    0.000000    0.000000    0.000000    
-0.035981    0.889587    1.063983    -1.019235    3.535507    -176.933716    -0.171084    0.195974    -0.853031    -2.461232    1.188483    -0.258945    -0.125764    6.487635    0.370507    -4.454815    0.422336    0.950180    11.856556    -0.140203    -1.809574    -17.539774    -3.360838    -6.727649    -1.772737    -12.980096    1.229331    90.822609    -0.170416    12.962793    -10.850228    -1.331904    1.361918    24.281555    -6.681516    -2.350177    -4.759520    -5.501113    -2.661148    -88.539024    3.735857    -5.658862    3.412277    9.321092    0.590516    -0.875444    -1.596043    -2.021016    -3.397251    -7.893883    12.554865    0.000000    0.000000    0.000000    -6.654043    10.843871    4.829208    1.077858    -5.160272    0.618035    2.680151    -6.970137    -14.784623    0.000000    0.000000    0.000000    
-0.035959    0.889618    1.063988    -1.013536    3.556974    -176.927170    -0.198457    0.215098    -0.864845    -2.400876    1.183358    -0.263672    -0.336388    6.468169    0.418732    -4.126210    0.532879    0.920250    11.839386    -0.145731    -1.827312    -17.575274    -3.197318    -6.733736    -1.657193    -12.985382    1.206388    90.555023    -0.137847    12.969054    -10.944989    -1.323653    1.292180    24.385515    -6.610838    -2.237526    -4.710248    -5.671819    -2.735058    -89.353500    3.760858    -5.805002    3.415359    9.336871    0.600231    -0.862354    -1.588250    -2.021425    -3.413388    -7.891274    12.529989    0.000000    0.000000    0.000000    -6.649470    10.845315    4.834088    1.092731    -5.121954    0.590670    2.681440    -6.980233    -14.779834    0.000000    0.000000    0.000000    
-0.035942    0.889628    1.063997    -1.014169    3.581187    -176.922073    -0.217396    0.194700    -0.874644    -2.369526    1.247947    -0.266009    -0.404405    6.466629    0.391929    -4.145106    0.579181    0.883746    11.741743    -0.141816    -1.879456    -17.486492    -3.180208    -6.728311    -1.653314    -12.881931    1.276912    90.245773    -0.143319    12.864281    -10.912220    -1.342632    1.259445    24.444891    -6.386523    -2.189334    -4.867045    -5.800689    -2.807425    -88.922951    3.982779    -5.956866    3.415539    9.354661    0.602510    -0.861453    -1.581321    -2.019557    -3.405092    -7.885669    12.532254    0.000000    0.000000    0.000000    -6.646141    10.843208    4.832989    1.094362    -5.069935    0.559017    2.676545    -7.005631    -14.733677    0.000000    0.000000    0.000000    
-0.035930    0.889605    1.064024    -1.006947    3.617397    -176.917801    -0.260799    0.269033    -0.892388    -2.243566    1.255948    -0.273114    -0.583521    6.273403    0.423192    -4.028271    0.725988    0.872424    11.780493    -0.196728    -1.803729    -17.597092    -3.093129    -6.772135    -1.651266    -12.875726    1.150701    89.970596    0.000255    12.859557    -11.177720    -1.385949    1.146753    24.706364    -6.231359    -2.111456    -4.978342    -5.657431    -2.851110    -88.657295    3.832356    -5.825708    3.435827    9.367350    0.590998    -0.875410    -1.539248    -2.029264    -3.388231    -7.922455    12.534717    0.000000    0.000000    0.000000    -6.628894    10.853434    4.816522    1.085169    -5.019215    0.579236    2.684453    -7.048990    -14.738287    0.000000    0.000000    0.000000    
-0.035917    0.889592    1.064043    -1.016014    3.634387    -176.916321    -0.237754    0.275153    -0.921341    -2.391362    1.190751    -0.282466    -0.236563    6.502485    0.375846    -4.428257    0.573897    0.936816    11.888930    -0.080564    -1.849167    -17.636963    -2.798212    -6.777003    -1.423061    -12.842582    1.215708    89.410339    -0.088816    12.827397    -10.940245    -1.280717    1.308454    24.516464    -6.306788    -2.215142    -4.889183    -5.612959    -2.859868    -88.704384    3.857199    -5.778115    3.430031    9.374806    0.590540    -0.877046    -1.523492    -2.028239    -3.395660    -7.924333    12.524028    0.000000    0.000000    0.000000    -6.636800    10.842344    4.806167    1.090872    -4.962986    0.598852    2.680382    -7.090577    -14.738088    0.000000    0.000000    0.000000    
